<?xml version="1.0" standalone="no"?><!DOCTYPE svg PUBLIC "-//W3C//DTD SVG 1.1//EN" "http://www.w3.org/Graphics/SVG/1.1/DTD/svg11.dtd"><svg t="1555569487098" class="icon" style="" viewBox="0 0 1024 1024" version="1.1" xmlns="http://www.w3.org/2000/svg" p-id="15582" xmlns:xlink="http://www.w3.org/1999/xlink" width="48" height="48"><defs><style type="text/css">@font-face { font-family: rbicon; src: url("chrome-extension://dipiagiiohfljcicegpgffpbnjmgjcnf/fonts/rbicon.woff2") format("woff2"); font-weight: normal; font-style: normal; }
</style></defs><path d="M817.1 830.9H249.9C182.1 830.9 127 775.8 127 708V211.8c0-67.8 55.1-123 122.9-123H817c67.8 0 122.9 55.2 122.9 123V708c0.1 67.8-55 122.9-122.8 122.9zM249.9 141.5c-38.7 0-70.3 31.5-70.3 70.3V708c0 38.7 31.5 70.3 70.3 70.3H817c38.7 0 70.3-31.5 70.3-70.3V211.8c0-38.8-31.5-70.3-70.3-70.3H249.9z" fill="#828282" p-id="15583"></path><path d="M664.5 502.3l-157.3 90.8c-32.7 18.9-73.5-4.7-73.5-42.5V368.9c0-37.7 40.9-61.3 73.5-42.5l157.3 90.8c32.7 19.1 32.7 66.3 0 85.1z" fill="#828282" p-id="15584"></path></svg>