<?xml version="1.0" standalone="no"?><!DOCTYPE svg PUBLIC "-//W3C//DTD SVG 1.1//EN" "http://www.w3.org/Graphics/SVG/1.1/DTD/svg11.dtd"><svg t="1555569496554" class="icon" style="" viewBox="0 0 1024 1024" version="1.1" xmlns="http://www.w3.org/2000/svg" p-id="15951" xmlns:xlink="http://www.w3.org/1999/xlink" width="48" height="48"><defs><style type="text/css">@font-face { font-family: rbicon; src: url("chrome-extension://dipiagiiohfljcicegpgffpbnjmgjcnf/fonts/rbicon.woff2") format("woff2"); font-weight: normal; font-style: normal; }
</style></defs><path d="M540.032 70.976c-245.952 0-446.016 200.064-446.016 446.016S294.08 963.008 540.032 963.008s446.016-200.064 446.016-446.016S785.984 70.976 540.032 70.976z m0 828.032c-210.624 0-382.016-171.392-382.016-382.016s171.392-382.016 382.016-382.016 382.016 171.392 382.016 382.016-171.392 382.016-382.016 382.016z" p-id="15952"></path><path d="M417.152 643.84c0 35.2 24.96 49.6 55.424 32L692.16 549.056c30.528-17.6 30.528-46.4 0-64L472.576 358.208c-30.528-17.6-55.424-3.2-55.424 32V643.84z" p-id="15953"></path></svg>