<?xml version="1.0" standalone="no"?><!DOCTYPE svg PUBLIC "-//W3C//DTD SVG 1.1//EN" "http://www.w3.org/Graphics/SVG/1.1/DTD/svg11.dtd"><svg t="1555569492759" class="icon" style="" viewBox="0 0 1024 1024" version="1.1" xmlns="http://www.w3.org/2000/svg" p-id="15829" xmlns:xlink="http://www.w3.org/1999/xlink" width="48" height="48"><defs><style type="text/css">@font-face { font-family: rbicon; src: url("chrome-extension://dipiagiiohfljcicegpgffpbnjmgjcnf/fonts/rbicon.woff2") format("woff2"); font-weight: normal; font-style: normal; }
</style></defs><path d="M1012.88 431.92a31.696 31.696 0 0 0-32.248-5.208L712.368 535 570.6 289.264c53.904-20.64 92.352-72.768 92.352-133.832 0-79.064-64.352-143.384-143.432-143.384-79.064 0-143.4 64.32-143.4 143.384 0 63.656 41.728 117.688 99.232 136.36L334.648 535.616 42.616 426.432a31.44 31.44 0 0 0-31.784 5.76 31.544 31.544 0 0 0-10.064 30.704l114.856 512.44A31.52 31.52 0 0 0 146.416 1000h731.168a31.56 31.56 0 0 0 30.8-24.664l114.848-512.44a31.592 31.592 0 0 0-10.352-30.976zM439.256 155.432c0-44.248 36-80.256 80.272-80.256 44.28 0 80.296 36 80.296 80.256 0 44.264-36.016 80.272-80.296 80.272-44.272 0-80.272-36.008-80.272-80.272zM852.312 936H171.688L75.12 505.56l262.464 98.336a31.496 31.496 0 0 0 38.392-13.672l147.752-255.944 147.68 256.032a31.704 31.704 0 0 0 39.152 13.504l237.936-96.472L852.312 936z" fill="#888888" p-id="15830"></path></svg>