<?xml version="1.0" standalone="no"?><!DOCTYPE svg PUBLIC "-//W3C//DTD SVG 1.1//EN" "http://www.w3.org/Graphics/SVG/1.1/DTD/svg11.dtd"><svg t="1551445283453" class="icon" style="" viewBox="0 0 1024 1024" version="1.1" xmlns="http://www.w3.org/2000/svg" p-id="5937" xmlns:xlink="http://www.w3.org/1999/xlink" width="200" height="200"><defs><style type="text/css"></style></defs><path d="M814.06 508.529c0 0.883-0.404 1.622-0.504 2.491-4.954 150.332-120.717 272.649-268.378 287.315v180.736h112.038c12.375 0 22.41 10.04 22.41 22.41s-10.04 22.41-22.41 22.41H388.333c-12.375 0-22.41-10.04-22.41-22.41s10.04-22.41 22.41-22.41h112.038V799.077c-154.669-7.68-278.192-132.725-283.314-288.069-0.105-0.871-0.504-1.617-0.504-2.491 0-0.522 0.273-0.968 0.298-1.497-0.007-2.004-0.298-3.958-0.298-5.973h1.507c3.089-8.661 11.173-14.94 20.903-14.94s17.804 6.272 20.903 14.94h1.507c0 140.251 113.695 253.945 253.945 253.945s253.945-113.695 253.945-253.945h1.507c3.089-8.661 11.173-14.94 20.903-14.94s17.804 6.272 20.903 14.94h1.507c0 2.019-0.273 3.97-0.298 5.973 0.007 0.522 0.298 0.968 0.298 1.497zM515.295 695.257c-107.247 0-194.196-86.939-194.196-194.196V202.302c0-107.247 86.939-194.196 194.196-194.196 107.247 0 194.196 86.939 194.196 194.196v298.759c0 107.247-86.939 194.196-194.196 194.196z m149.386-239.004h-82.154a7.468 7.468 0 0 1 0-14.934h82.154v-44.815h-82.154a7.468 7.468 0 0 1 0-14.934h82.154v-44.815h-82.154a7.468 7.468 0 0 1 0-14.934h82.154v-44.815h-82.154a7.468 7.468 0 0 1 0-14.934h82.154v-59.751c0-82.506-66.884-149.383-149.383-149.383-82.506 0-149.383 66.884-149.383 149.383v59.751h82.154a7.468 7.468 0 0 1 0 14.934h-82.154v44.815h82.154a7.468 7.468 0 0 1 0 14.934h-82.154v44.815h82.154a7.468 7.468 0 0 1 0 14.934h-82.154v44.815h82.154a7.468 7.468 0 0 1 0 14.934h-82.154v44.815c0 82.506 66.884 149.383 149.383 149.383 82.506 0 149.383-66.884 149.383-149.383v-44.815zM500.356 107.554c0-5.423 4.409-9.808 9.833-9.808 45.005 0 86.148 28.206 102.345 70.18 1.961 5.067-0.569 10.744-5.63 12.696-5.041 1.961-10.744-0.569-12.696-5.63-13.292-34.442-47.058-57.598-84.011-57.598-5.423 0-9.833-4.387-9.833-9.833z m108.562 81.799c0.273-0.007 0.537-0.007 0.816-0.007 5.067 0 9.367 3.9 9.789 9.02 0.241 2.981 0.356 6.014 0.356 9.077 0 5.423-4.387 9.808-9.833 9.808-5.406 0-9.808-4.387-9.808-9.808a95.12 95.12 0 0 0-0.298-7.479c-0.448-5.406 3.583-10.159 8.991-10.588z" p-id="5938"></path></svg>