<?xml version="1.0" standalone="no"?><!DOCTYPE svg PUBLIC "-//W3C//DTD SVG 1.1//EN" "http://www.w3.org/Graphics/SVG/1.1/DTD/svg11.dtd"><svg t="1551176601669" class="icon" style="" viewBox="0 0 1024 1024" version="1.1" xmlns="http://www.w3.org/2000/svg" p-id="10664" xmlns:xlink="http://www.w3.org/1999/xlink" width="200" height="200"><defs><style type="text/css"></style></defs><path d="M864 180.8v-1.6-1.6-3.2-1.6s0-1.6-1.6-1.6c0 0 0-1.6-1.6-1.6l-1.6-1.6-1.6-1.6-1.6-1.6-1.6-1.6s-1.6 0-1.6-1.6c-1.6 0-1.6-1.6-3.2-1.6H848c-1.6 0-1.6 0-3.2-1.6H840h-1.6-1.6l-464 64h-3.2-1.6s-1.6 0-1.6 1.6c0 0-1.6 0-1.6 1.6l-1.6 1.6-1.6 1.6-1.6 1.6-1.6 1.6-1.6 1.6s0 1.6-1.6 1.6c0 0 0 1.6-1.6 1.6v443.2c-20.8-12.8-44.8-20.8-72-20.8-65.6 0-120 46.4-120 104s54.4 104 120 104 120-46.4 120-104V752 425.6L816 368v265.6c-20.8-12.8-44.8-20.8-72-20.8-65.6 0-120 46.4-120 104s54.4 104 120 104 120-46.4 120-104v-4.8-531.2z m-584 640c-40 0-72-25.6-72-56s32-56 72-56 72 25.6 72 56-32 56-72 56z m464-48c-40 0-72-25.6-72-56s32-56 72-56 72 25.6 72 56-32 56-72 56zM816 318.4l-416 57.6v-112L816 208v110.4z" p-id="10665"></path></svg>