<?xml version="1.0" standalone="no"?><!DOCTYPE svg PUBLIC "-//W3C//DTD SVG 1.1//EN" "http://www.w3.org/Graphics/SVG/1.1/DTD/svg11.dtd"><svg t="1555412067349" class="icon" style="" viewBox="0 0 1024 1024" version="1.1" xmlns="http://www.w3.org/2000/svg" p-id="4772" xmlns:xlink="http://www.w3.org/1999/xlink" width="48" height="48"><defs><style type="text/css">@font-face { font-family: rbicon; src: url("chrome-extension://dipiagiiohfljcicegpgffpbnjmgjcnf/fonts/rbicon.woff2") format("woff2"); font-weight: normal; font-style: normal; }
</style></defs><path d="M204.454912 138.15808 820.340736 512.016384l-616.723456 373.819392L204.454912 138.15808M204.454912 84.583424c-29.586432 0-53.574656 23.988224-53.574656 53.574656l-0.837632 747.676672c-0.013312 19.47648 10.529792 37.421056 27.5456 46.877696 7.99232 4.368384 16.939008 6.670336 26.028032 6.695936 9.993216 0.014336 19.776512-2.771968 28.278784-8.04352L848.605184 557.559808c25.1392-15.591424 32.896-48.617472 17.317888-73.783296-4.369408-7.011328-10.30656-12.949504-17.317888-17.304576L232.733696 92.653568c-8.48896-5.25824-18.285568-8.04352-28.278784-8.04352l0 0L204.454912 84.583424z" p-id="4773"></path></svg>