<?xml version="1.0" standalone="no"?><!DOCTYPE svg PUBLIC "-//W3C//DTD SVG 1.1//EN" "http://www.w3.org/Graphics/SVG/1.1/DTD/svg11.dtd"><svg t="1551443405581" class="icon" style="" viewBox="0 0 1024 1024" version="1.1" xmlns="http://www.w3.org/2000/svg" p-id="7315" xmlns:xlink="http://www.w3.org/1999/xlink" width="200" height="200"><defs><style type="text/css"></style></defs><path d="M818.844171 512.222393h-153.533282c-14.329773 0-25.58888-11.770885-25.58888-25.58888s11.770885-25.58888 25.58888-25.588881h153.533282c14.329773 0 25.58888 11.770885 25.588881 25.588881 0 14.329773-11.259107 25.58888-25.588881 25.58888z" fill="" p-id="7316"></path><path d="M562.955368 486.633513m-25.588881 0a25.58888 25.58888 0 1 0 51.177761 0 25.58888 25.58888 0 1 0-51.177761 0Z" fill="" p-id="7317"></path><path d="M307.066564 768.111196c-84.443305 0-153.533282-69.089977-153.533282-153.533282s69.089977-153.533282 153.533282-153.533282 153.533282 69.089977 153.533282 153.533282-69.089977 153.533282-153.533282 153.533282z m0-255.888803c-56.295537 0-102.355521 46.059985-102.355521 102.355521s46.059985 102.355521 102.355521 102.355522 102.355521-46.059985 102.355522-102.355522-46.059985-102.355521-102.355522-102.355521z" fill="" p-id="7318"></path><path d="M895.610812 1024H127.944402c-70.62531 0-127.944402-57.319092-127.944402-127.944402V333.10023c0-70.62531 57.319092-127.944402 127.944402-127.944401h767.66641c70.62531 0 127.944402 57.319092 127.944402 127.944401v562.955368c0 70.62531-57.319092 127.944402-127.944402 127.944402zM127.944402 256.333589c-42.477541 0-76.766641 34.2891-76.766641 76.766641v562.955368c0 42.477541 34.2891 76.766641 76.766641 76.766641h767.66641c42.477541 0 76.766641-34.2891 76.766641-76.766641V333.10023c0-42.477541-34.2891-76.766641-76.766641-76.766641H127.944402z" fill="" p-id="7319"></path><path d="M818.844171 768.111196h-153.533282c-14.329773 0-25.58888-11.770885-25.58888-25.58888 0-14.329773 11.770885-25.58888 25.58888-25.58888h153.533282c14.329773 0 25.58888 11.770885 25.588881 25.58888 0 14.329773-11.259107 25.58888-25.588881 25.58888z" fill="" p-id="7320"></path><path d="M562.955368 742.522316m-25.588881 0a25.58888 25.58888 0 1 0 51.177761 0 25.58888 25.58888 0 1 0-51.177761 0Z" fill="" p-id="7321"></path><path d="M127.944402 256.333589c-9.723775 0-18.935771-5.629554-23.029993-14.84155-6.141331-12.79444-0.511778-28.147768 12.282663-34.2891l435.010966-204.711043c12.79444-6.141331 28.147768-0.511778 34.2891 12.282663 6.141331 12.79444 0.511778 28.147768-12.282663 34.2891l-435.010966 204.711042c-4.094221 1.535333-7.676664 2.558888-11.259107 2.558888z" fill="" p-id="7322"></path></svg>