<?xml version="1.0" standalone="no"?><!DOCTYPE svg PUBLIC "-//W3C//DTD SVG 1.1//EN" "http://www.w3.org/Graphics/SVG/1.1/DTD/svg11.dtd"><svg t="1551443409596" class="icon" style="" viewBox="0 0 1024 1024" version="1.1" xmlns="http://www.w3.org/2000/svg" p-id="7436" xmlns:xlink="http://www.w3.org/1999/xlink" width="200" height="200"><defs><style type="text/css"></style></defs><path d="M160 608c-19.2 0-32 12.8-32 32v128c0 19.2 12.8 32 32 32h64c19.2 0 32-12.8 32-32v-128c0-19.2-12.8-32-32-32h-64z m0-64h64c54.4 0 96 41.6 96 96v128c0 54.4-41.6 96-96 96h-64c-54.4 0-96-41.6-96-96v-128c0-54.4 41.6-96 96-96z m320-320c-19.2 0-32 12.8-32 32v512c0 19.2 12.8 32 32 32h64c19.2 0 32-12.8 32-32v-512c0-19.2-12.8-32-32-32h-64z m0-64h64c54.4 0 96 41.6 96 96v512c0 54.4-41.6 96-96 96h-64c-54.4 0-96-41.6-96-96v-512c0-54.4 41.6-96 96-96z m320 320c-19.2 0-32 12.8-32 32v256c0 19.2 12.8 32 32 32h64c19.2 0 32-12.8 32-32v-256c0-19.2-12.8-32-32-32h-64z m0-64h64c54.4 0 96 41.6 96 96v256c0 54.4-41.6 96-96 96h-64c-54.4 0-96-41.6-96-96v-256c0-54.4 41.6-96 96-96z" p-id="7437"></path></svg>