<?xml version="1.0" standalone="no"?><!DOCTYPE svg PUBLIC "-//W3C//DTD SVG 1.1//EN" "http://www.w3.org/Graphics/SVG/1.1/DTD/svg11.dtd"><svg t="1551445301942" class="icon" style="" viewBox="0 0 1024 1024" version="1.1" xmlns="http://www.w3.org/2000/svg" p-id="7534" xmlns:xlink="http://www.w3.org/1999/xlink" width="200" height="200"><defs><style type="text/css"></style></defs><path d="M731.922757 835.35262l146.415687 146.415687q16.893491 16.88535 0 33.786983c-11.267755 11.259614-28.161247 11.259614-33.786983 0l-146.415687-146.415687c-50.680474 45.054738-118.25444 67.573966-191.462283 67.573966-163.309178 0-292.831373-135.147931-292.831373-292.831373S348.990049 351.058964 506.673491 351.058964s292.823232 135.147931 292.823232 292.823232c5.658302 73.215985-22.527369 140.78995-67.573966 191.470424zM506.673491 891.666972c135.147931 0 247.776635-112.620562 247.776635-247.776635S641.821422 396.113702 506.673491 396.113702 258.86429 508.742406 258.86429 643.890337 371.517418 891.666972 506.673491 891.666972z m0 0" p-id="7535"></path></svg>