<?xml version="1.0" standalone="no"?><!DOCTYPE svg PUBLIC "-//W3C//DTD SVG 1.1//EN" "http://www.w3.org/Graphics/SVG/1.1/DTD/svg11.dtd"><svg t="1555515361092" class="icon" style="" viewBox="0 0 1024 1024" version="1.1" xmlns="http://www.w3.org/2000/svg" p-id="10035" xmlns:xlink="http://www.w3.org/1999/xlink" width="48" height="48"><defs><style type="text/css">@font-face { font-family: rbicon; src: url("chrome-extension://dipiagiiohfljcicegpgffpbnjmgjcnf/fonts/rbicon.woff2") format("woff2"); font-weight: normal; font-style: normal; }
</style></defs><path d="M841.142857 621.714286c-59.927771 0-112.607086 29.215086-145.963886 73.713371l-264.572343-124.463543C435.856457 552.1792 438.857143 532.463543 438.857143 512s-3.000686-40.1792-8.250514-58.964114l264.572343-124.463543C728.535771 373.070629 781.215086 402.285714 841.142857 402.285714c100.999314 0 182.857143-81.857829 182.857143-182.857143S942.142171 36.571429 841.142857 36.571429 658.285714 118.429257 658.285714 219.428571c0 14.893714 2.285714 29.143771 5.6064 43.000686l-264.356571 124.392229C359.892114 329.892571 294.070857 292.571429 219.428571 292.571429 98.2144 292.571429 0 390.785829 0 512s98.2144 219.428571 219.428571 219.428571c74.642286 0 140.463543-37.321143 180.106971-94.250057l264.356571 124.392229C660.571429 775.427657 658.285714 789.677714 658.285714 804.571429c0 100.999314 81.857829 182.857143 182.857143 182.857143s182.857143-81.857829 182.857143-182.857143S942.142171 621.714286 841.142857 621.714286zM841.142857 109.714286c60.500114 0 109.714286 49.214171 109.714286 109.714286s-49.214171 109.714286-109.714286 109.714286-109.714286-49.214171-109.714286-109.714286S780.642743 109.714286 841.142857 109.714286zM219.428571 658.285714c-80.643657 0-146.285714-65.642057-146.285714-146.285714s65.642057-146.285714 146.285714-146.285714 146.285714 65.642057 146.285714 146.285714S300.072229 658.285714 219.428571 658.285714zM841.142857 914.285714c-60.500114 0-109.714286-49.214171-109.714286-109.714286s49.214171-109.714286 109.714286-109.714286 109.714286 49.214171 109.714286 109.714286S901.642971 914.285714 841.142857 914.285714z" p-id="10036" fill="#ffffff"></path></svg>