<?xml version="1.0" standalone="no"?><!DOCTYPE svg PUBLIC "-//W3C//DTD SVG 1.1//EN" "http://www.w3.org/Graphics/SVG/1.1/DTD/svg11.dtd"><svg t="1551443412420" class="icon" style="" viewBox="0 0 1024 1024" version="1.1" xmlns="http://www.w3.org/2000/svg" p-id="7551" xmlns:xlink="http://www.w3.org/1999/xlink" width="200" height="200"><defs><style type="text/css"></style></defs><path d="M512 1024H76.8c-42.496 0-76.8-34.304-76.8-76.8V76.8C0 34.304 34.304 0 76.8 0h665.6c42.496 0 76.8 34.304 76.8 76.8v414.72c0 14.336-11.264 25.6-25.6 25.6s-25.6-11.264-25.6-25.6V76.8c0-14.336-11.264-25.6-25.6-25.6H76.8c-14.336 0-25.6 11.264-25.6 25.6v870.4c0 14.336 11.264 25.6 25.6 25.6h435.2c14.336 0 25.6 11.264 25.6 25.6s-11.776 25.6-25.6 25.6z" p-id="7552"></path><path d="M998.4 768h-179.2v-179.2c0-14.336-11.264-25.6-25.6-25.6s-25.6 11.264-25.6 25.6v179.2h-179.2c-14.336 0-25.6 11.264-25.6 25.6s11.264 25.6 25.6 25.6h179.2v179.2c0 14.336 11.264 25.6 25.6 25.6s25.6-11.264 25.6-25.6v-179.2h179.2c14.336 0 25.6-11.264 25.6-25.6s-11.264-25.6-25.6-25.6zM648.704 272.896H170.496c-12.288 0-21.504-11.264-21.504-25.6s9.728-25.6 21.504-25.6h478.72c12.288 0 21.504 11.264 21.504 25.6s-9.728 25.6-22.016 25.6zM409.6 472.576H170.496c-12.288 0-21.504-11.264-21.504-25.6s9.728-25.6 21.504-25.6H409.6c12.288 0 21.504 11.264 21.504 25.6s-9.216 25.6-21.504 25.6zM561.152 672.256H170.496c-12.288 0-21.504-11.264-21.504-25.6s9.728-25.6 21.504-25.6h390.144c12.288 0 21.504 11.264 21.504 25.6s-9.216 25.6-20.992 25.6z" p-id="7553"></path></svg>